File Name : Esclaves Au Harem (marc Dorcel)
 

File Size :   01 19 '  12 ''
 

Resolution : 1280   *  720    avi
 

GB :  1.44 GB
 
http://bayimg.com/nAnFlAAdl
 
http://bayimg.com/NANFpaAdL

                                   info

General
Complete name                    : C:DownloadsEsclaves Au Harem (marc Dorcel)dvdEsclaves Au Harem (marc Dorcel).avi
Format                           : AVI
Format/Info                      : Audio Video Interleave
Format profile                   : OpenDML
File size                        : 1.44 GiB
Duration                         : 1h 19mn
Overall bit rate                 : 2 604 Kbps
Writing application              : MEncoder SVN-r30881(20100311-gcc4.3.3)
Writing library                  : MPlayer

Video
ID                               : 0
Format                           : MPEG-4 Visual
Format profile                   : Advanced Simple@L5
Format settings, BVOP            : 2
Format settings, QPel            : No
Format settings, GMC             : No warppoints
Format settings, Matrix          : Default (H.263)
Codec ID                         : XVID
Codec ID/Hint                    : XviD
Duration                         : 1h 19mn
Bit rate                         : 2 398 Kbps
Width                            : 1 280 pixels
Height                           : 720 pixels
Display aspect ratio             : 16:9
Frame rate                       : 25.000 fps
Color space                      : YUV
Chroma subsampling               : 4:2:0
Bit depth                        : 8 bits
Scan type                        : Progressive
Compression mode                 : Lossy
Bits/(Pixel*Frame)               : 0.104
Stream size                      : 1.33 GiB (92%)
Writing library                  : XviD 1.2.1 (UTC 2008-12-04)

Audio
ID                               : 1
Format                           : MPEG Audio
Format version                   : Version 1
Format profile                   : Layer 3
Mode                             : Joint stereo
Codec ID                         : 55
Codec ID/Hint                    : MP3
Duration                         : 1h 19mn
Bit rate mode                    : Constant
Bit rate                         : 192 Kbps
Channel(s)                       : 2 channels
Sampling rate                    : 48.0 KHz
Compression mode                 : Lossy
Delay relative to video          : 40ms
Stream size                      : 2.22 MiB (0%)
Alignment                        : Aligned on interleaves
Interleave, duration             : 1174 ms (29.34 video frames)
Interleave, preload duration     : 504 ms

